<?xml version="1.0" encoding="UTF-8" standalone="no"?>
<!-- Created with Inkscape (http://www.inkscape.org/) -->

<svg
   width="94.27401mm"
   height="63.168674mm"
   viewBox="0 0 94.274009 63.168674"
   version="1.1"
   id="svg1"
   inkscape:version="1.3.2 (091e20ef0f, 2023-11-25, custom)"
   sodipodi:docname="hard disc.svg"
   xmlns:inkscape="http://www.inkscape.org/namespaces/inkscape"
   xmlns:sodipodi="http://sodipodi.sourceforge.net/DTD/sodipodi-0.dtd"
   xmlns="http://www.w3.org/2000/svg"
   xmlns:svg="http://www.w3.org/2000/svg">
  <sodipodi:namedview
     id="namedview1"
     pagecolor="#ffffff"
     bordercolor="#000000"
     borderopacity="0.25"
     inkscape:showpageshadow="2"
     inkscape:pageopacity="0.0"
     inkscape:pagecheckerboard="0"
     inkscape:deskcolor="#d1d1d1"
     inkscape:document-units="mm"
     inkscape:zoom="3.5776655"
     inkscape:cx="187.83198"
     inkscape:cy="124.10327"
     inkscape:window-width="2240"
     inkscape:window-height="1296"
     inkscape:window-x="0"
     inkscape:window-y="0"
     inkscape:window-maximized="1"
     inkscape:current-layer="layer1"
     showguides="true" />
  <defs
     id="defs1">
    <clipPath
       id="clip-0">
      <path
         clip-rule="nonzero"
         d="M 318,78 H 559.26953 V 316.85547 H 318 Z m 0,0"
         id="path225" />
    </clipPath>
  </defs>
  <g
     inkscape:label="Layer 1"
     inkscape:groupmode="layer"
     id="layer1"
     transform="translate(-73.007678,-116.96008)">
    <g
       clip-path="url(#clip-0)"
       id="g4990"
       transform="matrix(0.39074147,0,0,0.26446402,-51.248109,96.331888)"
       style="fill:#fffcfc;fill-opacity:1">
      <path
         fill="none"
         stroke-width="0.5"
         stroke-linecap="butt"
         stroke-linejoin="miter"
         stroke="#000000"
         stroke-opacity="1"
         stroke-miterlimit="4"
         d="M 5.3405e-4,0.00152585 H -240.769 V 238.35699 H 5.3405e-4 Z m 0,0"
         transform="matrix(1,0,0,-1,559.019,316.60699)"
         id="path4990"
         style="fill:#fffcfc;fill-opacity:1" />
    </g>
    <path
       fill="none"
       stroke-width="0.198437"
       stroke-linecap="butt"
       stroke-linejoin="miter"
       stroke="#000000"
       stroke-opacity="1"
       stroke-miterlimit="4"
       d="m 98.532485,162.85724 0.838191,0.83819 -0.166398,0.64906 m 0.0062,0.47955 -0.677994,-0.68109 m 13.711826,-3.06855 -3.50676,1.2268 v 1.61747 c 0,0.13436 -0.17157,0.24392 -0.38758,0.24392 -0.21704,0 -0.3917,-0.10852 -0.3917,-0.24288 l 0.001,-0.009 v -1.33739 l -5.52214,1.93683 v 1.61747 c 0,0.13436 -0.17157,0.24392 -0.38861,0.24392 -0.21601,0 -0.39067,-0.10852 -0.39067,-0.24288 v -1.34669 l -1.50482,0.51986"
       id="path4888" />
    <path
       fill="none"
       stroke-width="0.198437"
       stroke-linecap="butt"
       stroke-linejoin="bevel"
       stroke="#000000"
       stroke-opacity="1"
       stroke-miterlimit="4"
       d="m 100.15099,165.30774 v 2.04329"
       id="path4889" />
    <path
       fill="none"
       stroke-width="0.198437"
       stroke-linecap="butt"
       stroke-linejoin="miter"
       stroke="#000000"
       stroke-opacity="1"
       stroke-miterlimit="4"
       d="m 97.764574,164.1905 0.762744,-0.0413 v -1.28571 l -0.762744,0.0403 z m 0,0"
       id="path4890" />
    <path
       fill="none"
       stroke-width="0.198437"
       stroke-linecap="butt"
       stroke-linejoin="bevel"
       stroke="#000000"
       stroke-opacity="1"
       stroke-miterlimit="4"
       d="m 100.15306,165.30154 -0.948783,-0.95705 0.0031,2.0929 0.941543,0.94051 14.62753,-5.14801 c 0,0 -10e-4,-0.82579 -10e-4,-1.01389 0,-0.18707 0.61598,-0.34106 0.77515,-0.40618 v -0.8909 m -17.16588,-0.96428 1.527555,-0.53743 m -2.379183,0.83715 0.418579,-0.14779 m -2.782259,0.97978 1.919263,-0.67592"
       id="path4891" />
    <path
       fill="none"
       stroke-width="0.198437"
       stroke-linecap="butt"
       stroke-linejoin="miter"
       stroke="#000000"
       stroke-opacity="1"
       stroke-miterlimit="4"
       d="m 97.766641,164.19669 -0.0031,-1.28467 -3.527433,-3.52744 15.209402,-5.32267 6.10609,5.85907 -2.52698,0.88057 -0.001,0.004 v 1.6185 c 0,0.13333 -0.17157,0.24391 -0.38757,0.24391 -0.21601,0 -0.39171,-0.10955 -0.39171,-0.24288 l 0.001,-0.009 v -1.33738 l -0.001,-0.004 -3.50676,1.2268 v 1.61747 c 0,0.13436 -0.17157,0.24392 -0.38758,0.24392 -0.21704,0 -0.3917,-0.10852 -0.3917,-0.24288 l 0.001,-0.009 v -1.33739 m -10.195759,1.62471 -3.527433,-3.52744 v -1.28571 m 16.349392,0.41135 c 0,1.05316 -1.40664,1.90582 -3.1409,1.90582 -1.73529,0 -3.14192,-0.85266 -3.14192,-1.90582 0,-1.0511 1.40663,-1.9048 3.14192,-1.9048 1.73426,0 3.1409,0.8537 3.1409,1.9048 z m -1.06764,-0.1602 c 0,0.70177 -0.90434,1.27124 -2.02055,1.27124 -1.11517,0 -2.02055,-0.56947 -2.02055,-1.27124 0,-0.70177 0.90538,-1.27124 2.02055,-1.27124 1.11621,0 2.02055,0.56947 2.02055,1.27124 z m -10.89649,1.53376 c 0,0.11885 0.09612,0.21394 0.21394,0.21394 0.118856,0 0.214974,-0.0951 0.214974,-0.21394 m 0,1.07177 c 0,0.11782 -0.09612,0.21394 -0.214974,0.21394 -0.117822,0 -0.21394,-0.0961 -0.21394,-0.21394 v 0.0382 -1.11001 c 0,-0.11886 0.09612,-0.21394 0.21394,-0.21394 0.118856,0 0.214974,0.0951 0.214974,0.21394 v 1.11001 z m 0.642855,-2.35748 c 0,0.11782 0.09612,0.21394 0.213941,0.21394 0.11885,0 0.21497,-0.0961 0.21497,-0.21394 m 0,1.07177 c 0,0.11782 -0.0961,0.21394 -0.21497,0.21394 -0.117823,0 -0.213941,-0.0961 -0.213941,-0.21394 v 0.0382 -1.11001 c 0,-0.11886 0.09612,-0.21498 0.213941,-0.21498 0.11885,0 0.21497,0.0961 0.21497,0.21498 v 1.11001 z m -3.001364,-1.9296 c 0,0.11885 0.09612,0.21497 0.214974,0.21497 0.117822,0 0.213941,-0.0961 0.213941,-0.21497 m 0,1.07177 c 0,0.11885 -0.09612,0.21394 -0.213941,0.21394 -0.118856,0 -0.214974,-0.0951 -0.214974,-0.21394 v 0.0382 -1.11001 c 0,-0.11782 0.09612,-0.21394 0.214974,-0.21394 0.117822,0 0.213941,0.0961 0.213941,0.21394 v 1.11001 z m 0.428914,-1.71463 c 0,0.11886 0.09612,0.21498 0.213941,0.21498 0.118855,0 0.214973,-0.0961 0.214973,-0.21498 m 0,1.07177 c 0,0.11886 -0.09612,0.21394 -0.214973,0.21394 -0.117823,0 -0.213941,-0.0951 -0.213941,-0.21394 v 0.0382 -1.11001 c 0,-0.11782 0.09612,-0.21394 0.213941,-0.21394 0.118855,0 0.214973,0.0961 0.214973,0.21394 v 1.11001 z m 6.016171,-0.39067 -2.58692,-0.65009 m 8.1287,0.22118 1.30018,-1.54203 v -0.82372 c -5.65237,-1.911 -8.89352,0.66042 -9.42888,1.14308 v 1.00149 l 0.0351,-0.0279 c 0.71416,-0.57154 3.75067,-3.42924 9.39374,-1.28674 l 3.21117,3.18017 m -11.03292,3.85713 1.09761,-2.2655 m 6.72414,-5.60172 3.85299,3.78685 m -20.032881,0.11575 0.999422,-1.42937"
       id="path4892" />
    <path
       fill="none"
       stroke-width="0.198437"
       stroke-linecap="butt"
       stroke-linejoin="bevel"
       stroke="#000000"
       stroke-opacity="1"
       stroke-miterlimit="4"
       d="m 102.58599,160.08222 1.91099,1.82108 0.58912,-0.42789 -1.911,-1.82211 z m 0,0"
       id="path4893" />
    <path
       fill="none"
       stroke-width="0.198437"
       stroke-linecap="butt"
       stroke-linejoin="miter"
       stroke="#000000"
       stroke-opacity="1"
       stroke-miterlimit="4"
       d="m 101.81497,158.40376 h -1.91099 v -0.99839 h 1.91099"
       id="path4894" />
    <path
       fill="none"
       stroke-width="0.198437"
       stroke-linecap="butt"
       stroke-linejoin="bevel"
       stroke="#000000"
       stroke-opacity="1"
       stroke-miterlimit="4"
       d="m 103.17509,159.65331 -3.16053,-0.0971"
       id="path4895" />
    <path
       fill-rule="nonzero"
       fill="#ffffff"
       fill-opacity="1"
       stroke-width="0.198437"
       stroke-linecap="butt"
       stroke-linejoin="miter"
       stroke="#000000"
       stroke-opacity="1"
       stroke-miterlimit="4"
       d="m 116.84765,174.16508 -10.34976,3.47266 -5.58829,-5.60793 10.26088,-3.54914 z m 0,0"
       id="path4896" />
    <path
       fill-rule="nonzero"
       fill="#ffffff"
       fill-opacity="1"
       d="m 106.97951,143.9447 c -3.11608,0 -5.64306,1.40147 -5.64306,3.13056 0,1.72909 2.52698,3.13056 5.64306,3.13056 3.11713,0 5.64307,-1.40147 5.64307,-3.13056 0,-1.72909 -2.52594,-3.13056 -5.64307,-3.13056 m 0.0114,3.90984 c -0.82475,0 -1.49448,-0.35864 -1.49448,-0.80098 0,-0.44236 0.66973,-0.80099 1.49448,-0.80099 0.82476,0 1.49345,0.35863 1.49345,0.80099 0,0.44234 -0.66869,0.80098 -1.49345,0.80098"
       id="path4897"
       style="stroke-width:0.264583" />
    <path
       fill="none"
       stroke-width="0.198437"
       stroke-linecap="butt"
       stroke-linejoin="miter"
       stroke="#000000"
       stroke-opacity="1"
       stroke-miterlimit="4"
       d="m 106.97952,143.9447 c -3.11609,0 -5.64307,1.40147 -5.64307,3.13056 0,1.7291 2.52698,3.13056 5.64307,3.13056 3.11712,0 5.64306,-1.40146 5.64306,-3.13056 0,-1.72909 -2.52594,-3.13056 -5.64306,-3.13056 z m 0.0114,3.90984 c -0.82476,0 -1.49449,-0.35863 -1.49449,-0.80098 0,-0.44235 0.66973,-0.80099 1.49449,-0.80099 0.82475,0 1.49345,0.35864 1.49345,0.80099 0,0.44235 -0.6687,0.80098 -1.49345,0.80098 z m 0,0"
       id="path4898" />
    <path
       fill-rule="nonzero"
       fill="#ffffff"
       fill-opacity="1"
       d="m 106.97951,140.72939 c -3.11608,0 -5.64306,1.4025 -5.64306,3.13159 0,1.7291 2.52698,3.13056 5.64306,3.13056 3.11713,0 5.64307,-1.40146 5.64307,-3.13056 0,-1.72909 -2.52594,-3.13159 -5.64307,-3.13159 m 0.0114,3.91087 c -0.82475,0 -1.49448,-0.35966 -1.49448,-0.80098 0,-0.44338 0.66973,-0.80202 1.49448,-0.80202 0.82476,0 1.49345,0.35864 1.49345,0.80202 0,0.44132 -0.66869,0.80098 -1.49345,0.80098"
       id="path4899"
       style="stroke-width:0.264583" />
    <path
       fill="none"
       stroke-width="0.198437"
       stroke-linecap="butt"
       stroke-linejoin="miter"
       stroke="#000000"
       stroke-opacity="1"
       stroke-miterlimit="4"
       d="m 106.97952,140.7294 c -3.11609,0 -5.64307,1.4025 -5.64307,3.13159 0,1.72909 2.52698,3.13056 5.64307,3.13056 3.11712,0 5.64306,-1.40147 5.64306,-3.13056 0,-1.72909 -2.52594,-3.13159 -5.64306,-3.13159 z m 0.0114,3.91087 c -0.82476,0 -1.49449,-0.35967 -1.49449,-0.80099 0,-0.44338 0.66973,-0.80201 1.49449,-0.80201 0.82475,0 1.49345,0.35863 1.49345,0.80201 0,0.44132 -0.6687,0.80099 -1.49345,0.80099 z m 0,0"
       id="path4900" />
    <path
       fill-rule="nonzero"
       fill="#ffffff"
       fill-opacity="1"
       d="m 107.02292,140.11031 c -1.05523,0 -1.91099,0.47232 -1.91099,1.0542 0,0.58187 0.85576,1.05316 1.91099,1.05316 1.05523,0 1.911,-0.47129 1.911,-1.05316 0,-0.58188 -0.85577,-1.0542 -1.911,-1.0542 m 0,1.387 c -0.33383,0 -0.60461,-0.14883 -0.60461,-0.3328 0,-0.185 0.27078,-0.33383 0.60461,-0.33383 0.33383,0 0.60462,0.14883 0.60462,0.33383 0,0.18397 -0.27079,0.3328 -0.60462,0.3328"
       id="path4901"
       style="stroke-width:0.264583" />
    <path
       fill="none"
       stroke-width="0.198437"
       stroke-linecap="butt"
       stroke-linejoin="miter"
       stroke="#000000"
       stroke-opacity="1"
       stroke-miterlimit="4"
       d="m 107.02292,140.11031 c -1.05523,0 -1.91099,0.47233 -1.91099,1.0542 0,0.58188 0.85576,1.05317 1.91099,1.05317 1.05523,0 1.911,-0.47129 1.911,-1.05317 0,-0.58187 -0.85577,-1.0542 -1.911,-1.0542 z m 0,1.387 c -0.33383,0 -0.60461,-0.14883 -0.60461,-0.3328 0,-0.185 0.27078,-0.33383 0.60461,-0.33383 0.33383,0 0.60462,0.14883 0.60462,0.33383 0,0.18397 -0.27079,0.3328 -0.60462,0.3328 z m 0,0"
       id="path4902" />
    <path
       fill-rule="nonzero"
       fill="#ffffff"
       fill-opacity="1"
       d="m 107.02292,139.46745 c -1.05523,0 -1.91099,0.47129 -1.91099,1.0542 0,0.58188 0.85576,1.05317 1.91099,1.05317 1.05523,0 1.911,-0.47129 1.911,-1.05317 0,-0.58291 -0.85577,-1.0542 -1.911,-1.0542 m 0,1.387 c -0.33383,0 -0.60461,-0.14883 -0.60461,-0.3328 0,-0.185 0.27078,-0.33383 0.60461,-0.33383 0.33383,0 0.60462,0.14883 0.60462,0.33383 0,0.18397 -0.27079,0.3328 -0.60462,0.3328"
       id="path4903"
       style="stroke-width:0.264583" />
    <path
       fill="none"
       stroke-width="0.198437"
       stroke-linecap="butt"
       stroke-linejoin="miter"
       stroke="#000000"
       stroke-opacity="1"
       stroke-miterlimit="4"
       d="m 107.02292,139.46745 c -1.05523,0 -1.91099,0.47129 -1.91099,1.0542 0,0.58188 0.85576,1.05317 1.91099,1.05317 1.05523,0 1.911,-0.47129 1.911,-1.05317 0,-0.58291 -0.85577,-1.0542 -1.911,-1.0542 z m 0,1.387 c -0.33383,0 -0.60461,-0.14883 -0.60461,-0.3328 0,-0.185 0.27078,-0.33383 0.60461,-0.33383 0.33383,0 0.60462,0.14883 0.60462,0.33383 0,0.18397 -0.27079,0.3328 -0.60462,0.3328 z m -7.660512,-9.94461 15.209412,-5.32268 -6.33037,-6.21357 -15.209405,5.32267 z m 14.854902,-5.23172 -6.00273,-5.91076 0.0269,0.0341 -6.89777,2.40916 -7.681183,2.68304 6.003768,5.89421 m -2.004012,21.30619 c 0,0 -0.464054,-0.50022 -0.392741,-0.67902 0.07131,-0.17777 0.285254,-0.28526 0.464055,-0.14263 0.1788,0.14263 0.464054,0.42891 0.821655,0.25011 0.357601,-0.1788 0.964282,0.21394 0.964282,-0.50023 0,-0.71416 -0.142627,-2.3213 -0.107487,-2.64376 0.03617,-0.3204 0.07235,-0.53537 0.07235,-0.53537 m -0.838192,-3.5512 0.0031,-0.64079 m -0.794783,0.79375 0.0031,-0.64182 m -0.870231,2.74195 0.0021,-0.64182 m 0.954981,-3.12023 0.718302,0.84543 m 0.348299,-5.32681 c 0,0.1571 -0.264583,0.28422 -0.590145,0.28422 -0.324528,0 -0.589111,-0.12712 -0.589111,-0.28422 0,-0.15709 0.264583,-0.28422 0.589111,-0.28422 0.325562,0 0.590145,0.12713 0.590145,0.28422 z M 97.557864,135.477 v -0.91157 m 0.08992,-0.0331 0.001,-0.85473 m 0.504362,0.80925 v -0.91054 m 0.484725,0.57774 v -0.91054 m 0.136426,0.17984 0.0052,-0.8661 m -2.545581,19.53679 -0.679028,-0.50022 -0.250114,0.1788 v 1.49965 H 94.0542 l 0.07235,0.64388 0.677995,0.678 0.214974,0.0351 -0.03617,-0.53537 h 0.964283 v -1.07073 h 0.3576 l 0.714169,0.71416 2.428792,-1.00045 -0.03617,-0.21394 -0.285254,0.0351 -1.28571,-0.71417 -0.819588,0.22428 -0.609782,0.16846 z m 0.928109,0.0713 c -0.321428,-0.3576 -0.571542,-0.57154 -0.535368,-0.92811 0.03514,-0.3576 -0.286288,-0.67903 0.392741,-0.67903 0.679028,0 1.249536,0.8568 1.67845,0.57154 0.428915,-0.28629 0.642855,-0.50023 0.607715,-1.7508 -0.03617,-1.24953 0.714167,-3.99975 1.285707,-5.00021 0.57154,-1.00045 -1.250567,-4.14341 -3.500559,-4.21473 -0.224276,-0.007 -0.412378,-0.0124 -0.569474,-0.0145 v -1.03043 m -0.355534,7.21197 0.0021,-0.64079 m 0.56534,-2.312 0.890902,0.88056 m -1.339453,-0.45578 -0.821655,1.29294 1.689819,0.16847 0.136425,-0.80719 z m 0.448551,-4.63951 -2.500106,-0.71417 v -0.42892 l 2.500106,0.71417 z m -2.500106,-1.17823 c 0.250114,-0.42891 1.031462,-1.35805 2.249992,-1.35805 0.07235,0 0.857829,0.85783 0.857829,0.85783 l 0.571541,-0.0362 0.142627,0.25012 3.608054,0.67903 3.92844,0.35656 0.0362,0.39378 h -0.1788 v 0.21394 h 0.25011 v 0.28525 h -7.036261 c 0,0 0.821655,0.67903 1.070735,0.92914 0.250114,0.25012 1.536856,2.25 0.965316,3.67937 m -3.960482,-5.09013 c 0,0 -0.0279,-0.96118 0.683163,-1.07281 0.710034,-0.11162 0.633553,0.0548 0.633553,0.0548 v -0.42891 c 0,0 0.07648,-0.1664 -0.633553,-0.0548 -0.711068,0.11162 -0.683163,1.0728 -0.683163,1.0728"
       id="path4904" />
    <path
       fill="none"
       stroke-width="0.198437"
       stroke-linecap="butt"
       stroke-linejoin="bevel"
       stroke="#000000"
       stroke-opacity="1"
       stroke-miterlimit="4"
       d="m 95.498044,135.97723 v -0.82579"
       id="path4905" />
    <path
       fill="none"
       stroke-width="0.198437"
       stroke-linecap="butt"
       stroke-linejoin="miter"
       stroke="#000000"
       stroke-opacity="1"
       stroke-miterlimit="4"
       d="m 96.406517,135.77052 v -0.8816 m -1.842781,-1.90479 0.940511,2.17971 0.907438,-0.25115 0.295589,-0.3483 0.856796,0.0538 0.08061,-0.93741 0.508496,-0.0538 0.05374,-0.40204 0.428915,0.0537 0.133325,-0.72347 0.255281,-0.12919"
       id="path4906" />
    <path
       fill="none"
       stroke-width="0.198437"
       stroke-linecap="butt"
       stroke-linejoin="bevel"
       stroke="#000000"
       stroke-opacity="1"
       stroke-miterlimit="4"
       d="m 95.504247,136.02064 0.907438,-0.25012 0.295589,-0.34829 0.856795,0.0537 0.08062,-0.93844 0.508496,-0.0527 0.05374,-0.40205 0.428914,0.0537 0.133326,-0.72347 0.214974,-0.10749 0.02687,-0.003 c 0,0 0.05271,-0.53227 0,-0.98806 -0.05374,-0.45578 -0.509529,-0.45578 -0.509529,-0.45578 l -3.937744,1.07177 v 0.91054 l 1.178222,2.73265 0.856796,-0.11989 0.111621,-0.98702 v -0.91054 m 2.80913,9.10745 -0.928108,-0.0351 -0.750342,0.1788 -0.214974,0.32143 0.03617,0.85783 -0.286288,0.49919 -0.392741,0.42892 -0.821655,-0.21498 -1.713591,-1.46967 -0.0031,0.64078 1.716691,1.47175 0.821655,0.21497 0.392741,-0.42891 0.286288,-0.50023 -0.03617,-0.85679 0.214974,-0.32143 0.750342,-0.1788 0.928108,0.0351 0.03617,-1.64228 -1.036629,-0.10749 -0.427881,0.14263 -1.214396,0.64389 -0.607715,0.10645 -0.464054,0.46406 -1.143083,0.0723 -0.223242,0.26769"
       id="path4907" />
    <path
       fill="none"
       stroke-width="0.198437"
       stroke-linecap="butt"
       stroke-linejoin="miter"
       stroke="#000000"
       stroke-opacity="1"
       stroke-miterlimit="4"
       d="m 96.974959,138.33264 0.89607,0.69867 h -1.128613 c 0,0 1.169954,0.0982 1.920296,0.57774 v -0.83819 h 6.922578"
       id="path4908" />
    <path
       fill-rule="nonzero"
       fill="#ffffff"
       fill-opacity="1"
       d="m 111.3193,163.49286 -10.28671,3.53674 4.82141,4.82244 10.28775,-3.53673 z m 0.54261,3.43132 c -0.093,0.0786 -0.20568,0.0982 -0.25115,0.0444 l -1.04283,-1.23403 c -0.0455,-0.0548 -0.007,-0.16227 0.0858,-0.24082 0.093,-0.0796 0.20671,-0.0992 0.25218,-0.0444 l 1.04283,1.233 c 0.0455,0.0548 0.007,0.16227 -0.0868,0.24185 m 0.26561,-1.11828 c -0.15916,0 -0.28835,-0.093 -0.28835,-0.20671 0,-0.11369 0.12919,-0.2067 0.28835,-0.2067 0.15916,0 0.28732,0.093 0.28732,0.2067 0,0.11369 -0.12816,0.20671 -0.28732,0.20671"
       id="path4909"
       style="stroke-width:0.264583" />
    <path
       fill="none"
       stroke-width="0.198437"
       stroke-linecap="butt"
       stroke-linejoin="miter"
       stroke="#000000"
       stroke-opacity="1"
       stroke-miterlimit="4"
       d="m 111.3193,163.49286 -10.28671,3.53673 4.82141,4.82245 10.28775,-3.53674 z m 0.54261,3.43131 c -0.093,0.0786 -0.20568,0.0982 -0.25115,0.0444 l -1.04283,-1.23403 c -0.0455,-0.0548 -0.007,-0.16226 0.0858,-0.24081 0.093,-0.0796 0.20671,-0.0992 0.25218,-0.0444 l 1.04283,1.233 c 0.0455,0.0548 0.007,0.16226 -0.0868,0.24184 z m 0.26561,-1.11828 c -0.15916,0 -0.28835,-0.093 -0.28835,-0.2067 0,-0.11369 0.12919,-0.20671 0.28835,-0.20671 0.15917,0 0.28732,0.093 0.28732,0.20671 0,0.11369 -0.12815,0.2067 -0.28732,0.2067 z m -11.08046,-43.47331 c -0.24908,0.1912 -0.53847,0.45475 -0.52296,0.63872 0.0258,0.31936 2.03605,2.32957 2.10323,2.31614 0.0661,-0.0134 0.19947,0.28009 0.47852,-0.1726 0.28009,-0.45269 3.22151,-3.76721 3.22151,-3.76721 0,0 3.39514,-0.10749 4.31395,1.5968 0.91777,1.70429 -0.89194,2.87527 -1.59784,3.18223 -0.7059,0.30593 -2.56935,0.37207 -2.56935,0.37207 l -2.11666,1.66398 0.14676,0.23978 0.0372,0.22428 -5.169707,1.84898 m 5.185217,-7.6109 c 0,0.17983 -1.00769,1.21129 -1.89033,1.21129 -0.8816,0 -1.53065,-1.0511 -1.53065,-1.23093 0,-0.17983 0.75551,-0.40618 1.63814,-0.40618 0.8816,0 1.78284,0.24598 1.78284,0.42582 z m -7.401102,5.41259 c 0.500228,-0.21394 1.084172,-0.35554 1.608171,0.26045 0.283187,0.33279 0.464054,0.75034 -0.07131,1.25056 m 9.877431,-5.13663 c 0.3607,-1.86345 -1.36323,-1.82108 -1.93373,-1.76527 l -0.0331,-0.52607 c 0.75965,-0.0734 3.05925,-0.13022 2.57659,2.35438 z m 3.23184,-1.27538 c 0.80305,2.03606 -2.62516,4.07211 -5.35781,3.91191"
       id="path4910" />
    <path
       fill-rule="nonzero"
       fill="#000000"
       fill-opacity="1"
       d="m 145.04482,135.51529 h 0.43511 c 0.34106,0 0.62425,0.11886 0.62425,0.49713 0,0.36897 -0.28835,0.50023 -0.58808,0.50023 h -0.23357 v 0.66456 h -0.23771 z m 0.23771,0.78755 h 0.23564 c 0.14779,0 0.33383,-0.0734 0.33383,-0.29249 0,-0.2098 -0.21911,-0.28628 -0.3669,-0.28628 h -0.20257 v 0.57877"
       id="path4911"
       style="stroke-width:0.264583" />
    <path
       fill-rule="nonzero"
       fill="#000000"
       fill-opacity="1"
       d="m 146.39047,135.39127 h 0.22324 v 1.78594 h -0.22324 z m 0,0"
       id="path4912"
       style="stroke-width:0.264583" />
    <path
       fill-rule="nonzero"
       fill="#000000"
       fill-opacity="1"
       d="m 147.08087,136.04859 c 0.11162,-0.0672 0.24494,-0.11472 0.39997,-0.11472 0.34727,0 0.48783,0.17157 0.48783,0.50333 v 0.50126 c 0,0.1385 0.005,0.20257 0.009,0.23875 h -0.20877 v -0.1571 h -0.005 c -0.0527,0.0734 -0.17157,0.18604 -0.37621,0.18604 -0.26148,0 -0.44545,-0.11472 -0.44545,-0.37931 0,-0.30489 0.33383,-0.39997 0.56431,-0.39997 0.0879,0 0.14986,0 0.23875,0.005 0,-0.20981 -0.0765,-0.3173 -0.30076,-0.3173 -0.12609,0 -0.26148,0.0475 -0.35243,0.12403 z m 0.66456,0.54984 c -0.0486,0 -0.0961,-0.004 -0.14367,-0.004 -0.12092,0 -0.42064,0.0186 -0.42064,0.23255 0,0.12919 0.12299,0.19844 0.22531,0.19844 0.22221,0 0.339,-0.1385 0.339,-0.31936 v -0.10749"
       id="path4913"
       style="stroke-width:0.264583" />
    <path
       fill-rule="nonzero"
       fill="#000000"
       fill-opacity="1"
       d="m 148.99289,136.14368 h -0.32142 v 0.66456 c 0,0.14056 0.0858,0.21704 0.1881,0.21704 0.0692,0 0.11885,-0.0217 0.15193,-0.0434 v 0.19017 c -0.0496,0.0145 -0.11886,0.0341 -0.19017,0.0341 -0.23151,0 -0.37414,-0.10956 -0.37414,-0.35347 v -0.709 h -0.27389 v -0.18087 h 0.27389 v -0.28112 l 0.22428,-0.0713 v 0.35243 h 0.32142 v 0.18087"
       id="path4914"
       style="stroke-width:0.264583" />
    <path
       fill-rule="nonzero"
       fill="#000000"
       fill-opacity="1"
       d="m 149.91894,136.14368 h -0.32143 v 0.66456 c 0,0.14056 0.0858,0.21704 0.1881,0.21704 0.0692,0 0.11886,-0.0217 0.15296,-0.0434 v 0.19017 c -0.0506,0.0145 -0.11989,0.0341 -0.1912,0.0341 -0.23048,0 -0.3731,-0.10956 -0.3731,-0.35347 v -0.709 h -0.27389 v -0.18087 h 0.27389 v -0.28112 l 0.22324,-0.0713 v 0.35243 h 0.32143 v 0.18087"
       id="path4915"
       style="stroke-width:0.264583" />
    <path
       fill-rule="nonzero"
       fill="#000000"
       fill-opacity="1"
       d="m 151.13126,137.1276 c -0.0858,0.031 -0.18396,0.0785 -0.38344,0.0785 -0.43098,0 -0.62941,-0.26252 -0.62941,-0.65733 0,-0.35967 0.22737,-0.61495 0.56947,-0.61495 0.40514,0 0.5364,0.29559 0.5364,0.68627 h -0.86713 c 0,0.24081 0.1881,0.40514 0.39998,0.40514 0.14779,0 0.31936,-0.0765 0.37413,-0.12196 z m -0.14572,-0.67386 c 0,-0.18604 -0.10956,-0.339 -0.30179,-0.339 -0.21911,0 -0.31006,0.1819 -0.3266,0.339 h 0.62839"
       id="path4916"
       style="stroke-width:0.264583" />
    <path
       fill-rule="nonzero"
       fill="#000000"
       fill-opacity="1"
       d="m 151.52401,135.96281 h 0.2098 v 0.1881 h 0.004 c 0.0599,-0.12609 0.1881,-0.21704 0.31729,-0.21704 0.0661,0 0.10026,0.007 0.1478,0.0165 v 0.2005 c -0.0413,-0.0165 -0.0858,-0.0217 -0.12403,-0.0217 -0.2005,0 -0.33073,0.19017 -0.33073,0.49506 v 0.55294 h -0.22427 v -1.2144"
       id="path4917"
       style="stroke-width:0.264583" />
    <path
       fill-rule="nonzero"
       fill="#000000"
       fill-opacity="1"
       d="m 145.20798,147.28633 h 0.49093 c 0.49196,0 0.88573,0.3049 0.88573,0.81649 0,0.55811 -0.33899,0.84543 -0.88573,0.84543 h -0.49093 z m 0.23875,1.45315 h 0.24908 c 0.41031,0 0.63665,-0.19844 0.63665,-0.62632 0,-0.38861 -0.26458,-0.61702 -0.60771,-0.61702 h -0.27802 v 1.24334"
       id="path4918"
       style="stroke-width:0.264583" />
    <path
       fill-rule="nonzero"
       fill="#000000"
       fill-opacity="1"
       d="m 148.08946,147.56022 c -0.10438,-0.062 -0.22221,-0.092 -0.34313,-0.092 -0.38344,0 -0.63872,0.27596 -0.63872,0.65009 0,0.38964 0.28215,0.64906 0.62632,0.64906 0.11989,0 0.27905,-0.03 0.36277,-0.0806 l 0.0134,0.23047 c -0.12506,0.0527 -0.28009,0.06 -0.37828,0.06 -0.52606,0 -0.87643,-0.33797 -0.87643,-0.8661 0,-0.51263 0.37207,-0.85266 0.8785,-0.85266 0.12919,0 0.25528,0.0186 0.37414,0.0713 l -0.0186,0.23048"
       id="path4919"
       style="stroke-width:0.264583" />
    <path
       fill-rule="nonzero"
       fill="#000000"
       fill-opacity="1"
       d="m 148.94626,148.71054 c 0.0879,0.0568 0.21497,0.0858 0.27905,0.0858 0.10232,0 0.22841,-0.0424 0.22841,-0.17363 0,-0.22221 -0.52607,-0.20257 -0.52607,-0.54261 0,-0.25321 0.1881,-0.37413 0.42788,-0.37413 0.10542,0 0.19121,0.0207 0.27906,0.0475 l -0.0186,0.19534 c -0.0507,-0.031 -0.18397,-0.062 -0.23668,-0.062 -0.11369,0 -0.21394,0.0476 -0.21394,0.1478 0,0.24701 0.5271,0.1757 0.5271,0.56431 0,0.25941 -0.20774,0.37827 -0.42478,0.37827 -0.11369,0 -0.23048,-0.0124 -0.3328,-0.0661 l 0.0114,-0.2005"
       id="path4920"
       style="stroke-width:0.264583" />
    <path
       fill-rule="nonzero"
       fill="#000000"
       fill-opacity="1"
       d="m 149.96325,147.73385 h 0.21497 v 0.17157 h 0.004 c 0.06,-0.0899 0.19741,-0.19947 0.41238,-0.19947 0.35243,0 0.52296,0.28835 0.52296,0.61391 0,0.33383 -0.15399,0.65733 -0.52089,0.65733 -0.21498,0 -0.3359,-0.0827 -0.40515,-0.19534 h -0.004 v 0.66663 h -0.22428 z m 0.58291,0.15296 c -0.24288,0 -0.35864,0.23151 -0.35864,0.45682 0,0.20258 0.10439,0.45269 0.35657,0.45269 0.24081,0 0.34106,-0.26872 0.3359,-0.45992 0.005,-0.21808 -0.091,-0.44959 -0.33383,-0.44959"
       id="path4921"
       style="stroke-width:0.264583" />
    <path
       fill-rule="nonzero"
       fill="#000000"
       fill-opacity="1"
       d="m 151.68511,147.46307 h -0.25218 v -0.25218 h 0.25218 z m -0.23772,0.27078 h 0.22325 v 1.2144 h -0.22325 z m 0,0"
       id="path4922"
       style="stroke-width:0.264583" />
    <path
       fill-rule="nonzero"
       fill="#000000"
       fill-opacity="1"
       d="m 152.07992,147.73385 h 0.21704 v 0.19327 h 0.004 c 0.0672,-0.13849 0.22944,-0.22117 0.39791,-0.22117 0.31523,0 0.45579,0.19533 0.45579,0.5209 v 0.7214 h -0.22428 v -0.62839 c 0,-0.28318 -0.062,-0.42168 -0.25735,-0.43305 -0.25425,0 -0.36897,0.20464 -0.36897,0.50023 v 0.56121 h -0.22427 v -1.2144"
       id="path4923"
       style="stroke-width:0.264583" />
    <path
       fill-rule="nonzero"
       fill="#000000"
       fill-opacity="1"
       d="m 154.39502,148.77668 h -0.005 c -0.06,0.0909 -0.19741,0.20051 -0.41445,0.20051 -0.36586,0 -0.52089,-0.3266 -0.52089,-0.65733 0,-0.32556 0.17053,-0.61391 0.52296,-0.61391 0.21291,0 0.33383,0.0827 0.40308,0.19533 h 0.004 v -0.73897 h 0.22428 v 1.78594 h -0.21394 z m -0.3669,0.0196 c 0.25218,0 0.35656,-0.25012 0.35656,-0.45269 0,-0.22531 -0.11575,-0.45682 -0.35863,-0.45682 -0.24288,0 -0.339,0.22841 -0.33383,0.44959 -0.005,0.1912 0.0951,0.45992 0.3359,0.45992"
       id="path4924"
       style="stroke-width:0.264583" />
    <path
       fill-rule="nonzero"
       fill="#000000"
       fill-opacity="1"
       d="m 155.01927,147.16231 h 0.22324 v 1.78594 h -0.22324 z m 0,0"
       id="path4925"
       style="stroke-width:0.264583" />
    <path
       fill-rule="nonzero"
       fill="#000000"
       fill-opacity="1"
       d="m 156.583,148.89864 c -0.0858,0.031 -0.18294,0.0786 -0.38344,0.0786 -0.43098,0 -0.62839,-0.26148 -0.62839,-0.65733 0,-0.35966 0.22635,-0.61391 0.56948,-0.61391 0.40411,0 0.53537,0.29559 0.53537,0.68523 h -0.86713 c 0,0.24081 0.1881,0.40514 0.401,0.40514 0.14677,0 0.31833,-0.0765 0.37311,-0.12092 z m -0.1447,-0.67386 c 0,-0.18604 -0.10955,-0.33797 -0.30282,-0.33797 -0.21911,0 -0.31006,0.18087 -0.32659,0.33797 h 0.62941"
       id="path4926"
       style="stroke-width:0.264583" />
    <path
       fill-rule="nonzero"
       fill="#000000"
       fill-opacity="1"
       d="m 157.63513,147.73385 h 0.20981 v 0.17674 h 0.005 c 0.0858,-0.14056 0.2067,-0.20464 0.3855,-0.20464 0.14056,0 0.28112,0.0713 0.3452,0.23564 0.0837,-0.17363 0.26665,-0.23564 0.37621,-0.23564 0.31005,0 0.42168,0.19947 0.42168,0.46405 v 0.77825 h -0.22428 v -0.72347 c 0,-0.14986 -0.0351,-0.33797 -0.21601,-0.33797 -0.22841,0 -0.31936,0.22428 -0.31936,0.44959 v 0.61185 h -0.22427 v -0.72347 c 0,-0.14986 -0.0351,-0.33797 -0.21601,-0.33797 -0.22841,0 -0.31936,0.22428 -0.31936,0.44959 v 0.61185 h -0.22428 v -1.2144"
       id="path4927"
       style="stroke-width:0.264583" />
    <path
       fill-rule="nonzero"
       fill="#000000"
       fill-opacity="1"
       d="m 160.29337,147.70595 c 0.36897,0 0.61598,0.26665 0.61598,0.63562 0,0.34726 -0.25218,0.63562 -0.61598,0.63562 -0.36691,0 -0.61909,-0.28836 -0.61909,-0.63562 0,-0.36897 0.24702,-0.63562 0.61909,-0.63562 m 0,1.09037 c 0.26148,0 0.37827,-0.23771 0.37827,-0.45475 0,-0.23048 -0.14056,-0.45476 -0.37827,-0.45476 -0.24082,0 -0.38138,0.22428 -0.38138,0.45476 0,0.21704 0.11679,0.45475 0.38138,0.45475"
       id="path4928"
       style="stroke-width:0.264583" />
    <path
       fill-rule="nonzero"
       fill="#000000"
       fill-opacity="1"
       d="m 161.85503,147.91575 h -0.32143 v 0.66353 c 0,0.14056 0.0858,0.21704 0.1881,0.21704 0.0692,0 0.11886,-0.0217 0.15297,-0.0424 v 0.19016 c -0.0506,0.0145 -0.11886,0.0331 -0.19121,0.0331 -0.23047,0 -0.3731,-0.10956 -0.3731,-0.35244 v -0.709 h -0.27389 v -0.1819 h 0.27389 v -0.28112 l 0.22324,-0.0703 v 0.3514 h 0.32143 v 0.1819"
       id="path4929"
       style="stroke-width:0.264583" />
    <path
       fill-rule="nonzero"
       fill="#000000"
       fill-opacity="1"
       d="m 162.67462,147.70595 c 0.36897,0 0.61598,0.26665 0.61598,0.63562 0,0.34726 -0.25218,0.63562 -0.61598,0.63562 -0.36691,0 -0.61909,-0.28836 -0.61909,-0.63562 0,-0.36897 0.24702,-0.63562 0.61909,-0.63562 m 0,1.09037 c 0.26148,0 0.37827,-0.23771 0.37827,-0.45475 0,-0.23048 -0.14056,-0.45476 -0.37827,-0.45476 -0.24082,0 -0.38138,0.22428 -0.38138,0.45476 0,0.21704 0.11679,0.45475 0.38138,0.45475"
       id="path4930"
       style="stroke-width:0.264583" />
    <path
       fill-rule="nonzero"
       fill="#000000"
       fill-opacity="1"
       d="m 163.59136,147.73385 h 0.20877 v 0.18914 h 0.005 c 0.0599,-0.12713 0.1881,-0.21704 0.31729,-0.21704 0.0661,0 0.0992,0.007 0.1478,0.0165 v 0.20051 c -0.0413,-0.0176 -0.0868,-0.0217 -0.12403,-0.0217 -0.2005,0 -0.33176,0.19017 -0.33176,0.49506 v 0.55191 h -0.22324 v -1.2144"
       id="path4931"
       style="stroke-width:0.264583" />
    <path
       fill-rule="nonzero"
       fill="#000000"
       fill-opacity="1"
       d="m 145.24785,131.4019 h 0.23771 v 0.69556 h 0.79582 v -0.69556 h 0.23771 v 1.66191 h -0.23771 v -0.75654 h -0.79582 v 0.75654 h -0.23771 z m 0,0"
       id="path4932"
       style="stroke-width:0.264583" />
    <path
       fill-rule="nonzero"
       fill="#000000"
       fill-opacity="1"
       d="m 147.86475,133.0142 c -0.0858,0.031 -0.18397,0.0786 -0.38344,0.0786 -0.43098,0 -0.62839,-0.26148 -0.62839,-0.65733 0,-0.35966 0.22531,-0.61391 0.56844,-0.61391 0.40515,0 0.5364,0.29455 0.5364,0.68523 h -0.86713 c 0,0.24081 0.18811,0.40514 0.39998,0.40514 0.14779,0 0.31936,-0.0765 0.37414,-0.12196 z m -0.14573,-0.67386 c 0,-0.18603 -0.10955,-0.33796 -0.30179,-0.33796 -0.21911,0 -0.31006,0.18086 -0.3266,0.33796 h 0.62839"
       id="path4933"
       style="stroke-width:0.264583" />
    <path
       fill-rule="nonzero"
       fill="#000000"
       fill-opacity="1"
       d="m 148.31433,131.9352 c 0.11266,-0.0662 0.24598,-0.11369 0.39998,-0.11369 0.3483,0 0.48886,0.17156 0.48886,0.50229 v 0.5023 c 0,0.13849 0.004,0.20257 0.009,0.23771 h -0.20981 v -0.1571 h -0.004 c -0.0527,0.0744 -0.17157,0.18604 -0.37724,0.18604 -0.26149,0 -0.44545,-0.11472 -0.44545,-0.37827 0,-0.30489 0.33383,-0.39998 0.56534,-0.39998 0.0879,0 0.14986,0 0.23771,0.004 0,-0.20877 -0.0765,-0.31626 -0.29973,-0.31626 -0.12609,0 -0.26251,0.0475 -0.35243,0.12402 z m 0.66456,0.55087 c -0.0475,0 -0.0951,-0.005 -0.14263,-0.005 -0.12195,0 -0.42168,0.0186 -0.42168,0.23357 0,0.12816 0.12403,0.19741 0.22635,0.19741 0.22117,0 0.33796,-0.13849 0.33796,-0.31936 v -0.10646"
       id="path4934"
       style="stroke-width:0.264583" />
    <path
       fill-rule="nonzero"
       fill="#000000"
       fill-opacity="1"
       d="m 150.44133,132.89328 h -0.005 c -0.0589,0.0899 -0.1974,0.19947 -0.41444,0.19947 -0.3669,0 -0.52193,-0.3266 -0.52193,-0.65733 0,-0.32556 0.1726,-0.61391 0.52503,-0.61391 0.21187,0 0.3328,0.0827 0.40204,0.19534 h 0.005 v -0.73898 h 0.22324 v 1.78594 h -0.21394 z m -0.3669,0.0186 c 0.25218,0 0.3576,-0.25011 0.3576,-0.45269 0,-0.22634 -0.11679,-0.45682 -0.35967,-0.45682 -0.24287,0 -0.33899,0.22841 -0.33383,0.44959 -0.005,0.1912 0.0951,0.45992 0.3359,0.45992"
       id="path4935"
       style="stroke-width:0.264583" />
    <path
       fill-rule="nonzero"
       fill="#000000"
       fill-opacity="1"
       d="m 145.74376,123.19568 h 0.25011 l 0.7028,1.66192 h -0.26045 l -0.16846,-0.41962 h -0.81442 l -0.1695,0.41962 h -0.25012 z m 0.11679,0.22324 -0.33073,0.82476 h 0.66146 z m 0,0"
       id="path4936"
       style="stroke-width:0.264583" />
    <path
       fill-rule="nonzero"
       fill="#000000"
       fill-opacity="1"
       d="m 147.68679,123.84784 c -0.0858,-0.0362 -0.17156,-0.0527 -0.24288,-0.0527 -0.25011,0 -0.39067,0.22427 -0.39067,0.45475 0,0.21704 0.11679,0.45475 0.40514,0.45475 0.0765,0 0.17157,-0.0238 0.24081,-0.0682 l 0.0165,0.19947 c -0.093,0.0434 -0.2005,0.0506 -0.28112,0.0506 -0.3669,0 -0.61908,-0.28835 -0.61908,-0.63665 0,-0.36897 0.24701,-0.63562 0.61908,-0.63562 0.0899,0 0.20671,0.0217 0.27079,0.0475 l -0.0186,0.18604"
       id="path4937"
       style="stroke-width:0.264583" />
    <path
       fill-rule="nonzero"
       fill="#000000"
       fill-opacity="1"
       d="m 148.618,123.6432 h -0.32143 v -0.35243 l -0.22427,0.0713 v 0.28112 h -0.27389 v 0.18087 h 0.27389 v 0.71003 c 0,0.24288 0.14263,0.35243 0.37414,0.35243 0.0713,0 0.14056,-0.0196 0.19016,-0.0341 v -0.19017 c -0.0331,0.0217 -0.0827,0.0424 -0.15192,0.0424 -0.10232,0 -0.18811,-0.0755 -0.18811,-0.21601 v -0.66455 h 0.32143 v -0.18087"
       id="path4938"
       style="stroke-width:0.264583" />
    <path
       fill-rule="nonzero"
       fill="#000000"
       fill-opacity="1"
       d="m 149.97296,124.8576 h -0.21704 v -0.19327 h -0.004 c -0.0672,0.13849 -0.22945,0.2222 -0.39791,0.2222 -0.3142,0 -0.45476,-0.19533 -0.45476,-0.52193 v -0.7214 h 0.22325 v 0.62838 c 0,0.28319 0.062,0.42168 0.25735,0.43305 0.25528,0 0.36897,-0.20464 0.36897,-0.49919 v -0.56224 h 0.22427 v 1.2144"
       id="path4939"
       style="stroke-width:0.264583" />
    <path
       fill-rule="nonzero"
       fill="#000000"
       fill-opacity="1"
       d="m 150.41117,123.72898 c 0.11162,-0.0672 0.24495,-0.11472 0.39998,-0.11472 0.34726,0 0.48782,0.17156 0.48782,0.50333 v 0.50229 c 0,0.13746 0.005,0.20154 0.009,0.23772 h -0.2098 v -0.1571 h -0.004 c -0.0527,0.0734 -0.17157,0.18603 -0.37621,0.18603 -0.26148,0 -0.44545,-0.11472 -0.44545,-0.3793 0,-0.30489 0.33383,-0.39998 0.56431,-0.39998 0.0879,0 0.14986,0 0.23771,0.005 0,-0.2098 -0.0754,-0.31729 -0.29972,-0.31729 -0.12609,0 -0.26149,0.0475 -0.35244,0.12402 z m 0.66353,0.54984 c -0.0475,0 -0.0951,-0.005 -0.14263,-0.005 -0.12092,0 -0.42065,0.0196 -0.42065,0.23358 0,0.12919 0.123,0.1974 0.22531,0.1974 0.22221,0 0.33797,-0.13746 0.33797,-0.31832 v -0.10749"
       id="path4940"
       style="stroke-width:0.264583" />
    <path
       fill-rule="nonzero"
       fill="#000000"
       fill-opacity="1"
       d="m 152.3232,123.82407 h -0.32143 v 0.66455 c 0,0.14056 0.0858,0.21601 0.1881,0.21601 0.0692,0 0.11886,-0.0207 0.15193,-0.0424 v 0.19017 c -0.0496,0.0145 -0.11885,0.0341 -0.19017,0.0341 -0.23151,0 -0.37413,-0.10955 -0.37413,-0.35243 v -0.71003 h -0.27389 v -0.18087 h 0.27389 v -0.28112 l 0.22427,-0.0713 v 0.35243 h 0.32143 v 0.18087"
       id="path4941"
       style="stroke-width:0.264583" />
    <path
       fill-rule="nonzero"
       fill="#000000"
       fill-opacity="1"
       d="m 153.14176,123.61426 c 0.37,0 0.61701,0.26665 0.61701,0.63562 0,0.3483 -0.25218,0.63665 -0.61701,0.63665 -0.36691,0 -0.61909,-0.28835 -0.61909,-0.63665 0,-0.36897 0.24805,-0.63562 0.61909,-0.63562 m 0,1.09037 c 0.26251,0 0.3793,-0.23771 0.3793,-0.45475 0,-0.23048 -0.14056,-0.45475 -0.3793,-0.45475 -0.23978,0 -0.38034,0.22427 -0.38034,0.45475 0,0.21704 0.11679,0.45475 0.38034,0.45475"
       id="path4942"
       style="stroke-width:0.264583" />
    <path
       fill-rule="nonzero"
       fill="#000000"
       fill-opacity="1"
       d="m 154.17377,123.69618 h 0.20981 v 0.1881 h 0.005 c 0.0589,-0.12609 0.1881,-0.21704 0.31626,-0.21704 0.0672,0 0.10025,0.007 0.14779,0.0165 v 0.2005 c -0.0403,-0.0165 -0.0858,-0.0217 -0.12402,-0.0217 -0.19947,0 -0.33073,0.19016 -0.33073,0.49609 v 0.5519 h -0.22428 v -1.21439"
       id="path4943"
       style="stroke-width:0.264583" />
    <path
       fill-rule="nonzero"
       fill="#000000"
       fill-opacity="1"
       d="m 145.09659,139.46089 h 0.43615 c 0.34003,0 0.62425,0.11886 0.62425,0.49816 0,0.36897 -0.28835,0.4992 -0.58911,0.4992 h -0.23255 v 0.66456 h -0.23874 z m 0.23874,0.78858 h 0.23565 c 0.14779,0 0.33279,-0.0744 0.33279,-0.29352 0,-0.20877 -0.2191,-0.28525 -0.36586,-0.28525 h -0.20258 v 0.57877"
       id="path4944"
       style="stroke-width:0.264583" />
    <path
       fill-rule="nonzero"
       fill="#000000"
       fill-opacity="1"
       d="m 146.4133,139.90841 h 0.20981 v 0.1881 h 0.005 c 0.0589,-0.12609 0.1881,-0.21601 0.31626,-0.21601 0.0672,0 0.10025,0.007 0.1478,0.0165 v 0.19947 c -0.0403,-0.0165 -0.0858,-0.0207 -0.12403,-0.0207 -0.19947,0 -0.33073,0.19017 -0.33073,0.49506 v 0.5519 h -0.22427 v -1.21439"
       id="path4945"
       style="stroke-width:0.264583" />
    <path
       fill-rule="nonzero"
       fill="#000000"
       fill-opacity="1"
       d="m 147.60703,139.63762 h -0.25218 v -0.25218 h 0.25218 z m -0.23874,0.27079 h 0.22427 v 1.2144 h -0.22427 z m 0,0"
       id="path4946"
       style="stroke-width:0.264583" />
    <path
       fill-rule="nonzero"
       fill="#000000"
       fill-opacity="1"
       d="m 148.00184,139.90841 h 0.21704 v 0.19327 h 0.005 c 0.0662,-0.13746 0.22841,-0.22118 0.39687,-0.22118 0.3142,0 0.45476,0.19534 0.45476,0.5209 v 0.72141 h -0.22325 v -0.62839 c 0,-0.28319 -0.062,-0.42168 -0.25735,-0.43305 -0.25528,0 -0.36897,0.20464 -0.36897,0.50023 v 0.56121 h -0.22427 v -1.2144"
       id="path4947"
       style="stroke-width:0.264583" />
    <path
       fill-rule="nonzero"
       fill="#000000"
       fill-opacity="1"
       d="m 150.10197,140.08928 h -0.32143 v 0.66456 c 0,0.14056 0.0858,0.21704 0.1881,0.21704 0.0693,0 0.11886,-0.0217 0.15297,-0.0424 v 0.19017 c -0.0506,0.0145 -0.11989,0.0331 -0.19121,0.0331 -0.23047,0 -0.3731,-0.10955 -0.3731,-0.35243 v -0.71003 h -0.27389 v -0.18087 h 0.27389 v -0.28009 l 0.22324,-0.0713 v 0.3514 h 0.32143 v 0.18087"
       id="path4948"
       style="stroke-width:0.264583" />
    <path
       fill-rule="nonzero"
       fill="#000000"
       fill-opacity="1"
       d="m 151.3143,141.0732 c -0.0858,0.031 -0.18294,0.0785 -0.38344,0.0785 -0.43098,0 -0.62839,-0.26148 -0.62839,-0.65732 0,-0.35863 0.22635,-0.61392 0.56844,-0.61392 0.40515,0 0.5364,0.29456 0.5364,0.68523 h -0.86713 c 0,0.24082 0.18811,0.40515 0.39998,0.40515 0.14779,0 0.31936,-0.0765 0.37414,-0.12196 z m -0.14573,-0.67387 c 0,-0.18603 -0.10956,-0.33796 -0.30179,-0.33796 -0.21911,0 -0.31006,0.18087 -0.3266,0.33796 h 0.62839"
       id="path4949"
       style="stroke-width:0.264583" />
    <path
       fill-rule="nonzero"
       fill="#000000"
       fill-opacity="1"
       d="m 152.56693,140.95227 h -0.005 c -0.0589,0.0899 -0.1974,0.19947 -0.41444,0.19947 -0.36587,0 -0.5209,-0.32659 -0.5209,-0.65732 0,-0.32556 0.17156,-0.61392 0.524,-0.61392 0.21187,0 0.3328,0.0837 0.40204,0.19534 h 0.005 v -0.73897 h 0.22324 v 1.78594 h -0.21394 z m -0.3669,0.0186 c 0.25218,0 0.3576,-0.25011 0.3576,-0.45268 0,-0.22635 -0.11679,-0.45682 -0.35967,-0.45682 -0.24288,0 -0.33796,0.22841 -0.33383,0.44958 -0.004,0.19121 0.0951,0.45992 0.3359,0.45992"
       id="path4950"
       style="stroke-width:0.264583" />
    <path
       fill-rule="nonzero"
       fill="#000000"
       fill-opacity="1"
       d="m 153.06199,140.57297 h 0.61185 v -0.18087 h -0.61185 z m 0,0"
       id="path4951"
       style="stroke-width:0.264583" />
    <path
       fill-rule="nonzero"
       fill="#000000"
       fill-opacity="1"
       d="m 154.72701,140.11408 c -0.0858,-0.0362 -0.17157,-0.0527 -0.24288,-0.0527 -0.25012,0 -0.39068,0.22324 -0.39068,0.45475 0,0.21704 0.11679,0.45476 0.40412,0.45476 0.0765,0 0.17156,-0.0238 0.24081,-0.0692 l 0.0165,0.2005 c -0.093,0.0424 -0.19947,0.0496 -0.28112,0.0496 -0.36587,0 -0.61909,-0.28835 -0.61909,-0.63562 0,-0.36897 0.24805,-0.63562 0.61909,-0.63562 0.0909,0 0.20774,0.0217 0.27182,0.0475 l -0.0186,0.18604"
       id="path4952"
       style="stroke-width:0.264583" />
    <path
       fill-rule="nonzero"
       fill="#000000"
       fill-opacity="1"
       d="m 155.27891,139.38544 h -0.25218 v 0.25218 h 0.25218 z m -0.23771,1.73737 h 0.22324 v -1.2144 h -0.22324 z m 0,0"
       id="path4953"
       style="stroke-width:0.264583" />
    <path
       fill-rule="nonzero"
       fill="#000000"
       fill-opacity="1"
       d="m 155.67476,139.90841 h 0.20877 v 0.1881 h 0.005 c 0.0599,-0.12609 0.1881,-0.21601 0.31626,-0.21601 0.0672,0 0.10025,0.007 0.14779,0.0165 v 0.19947 c -0.0403,-0.0165 -0.0858,-0.0207 -0.12402,-0.0207 -0.19947,0 -0.33073,0.19017 -0.33073,0.49506 v 0.5519 h -0.22328 v -1.21439"
       id="path4954"
       style="stroke-width:0.264583" />
    <path
       fill-rule="nonzero"
       fill="#000000"
       fill-opacity="1"
       d="m 157.37181,140.11408 c -0.0858,-0.0362 -0.17157,-0.0527 -0.24288,-0.0527 -0.25011,0 -0.39067,0.22324 -0.39067,0.45475 0,0.21704 0.11678,0.45476 0.40514,0.45476 0.0765,0 0.17157,-0.0238 0.24081,-0.0692 l 0.0165,0.2005 c -0.093,0.0424 -0.2005,0.0496 -0.28112,0.0496 -0.3669,0 -0.61908,-0.28835 -0.61908,-0.63562 0,-0.36897 0.24804,-0.63562 0.61908,-0.63562 0.0909,0 0.20774,0.0217 0.27182,0.0475 l -0.0196,0.18604"
       id="path4955"
       style="stroke-width:0.264583" />
    <path
       fill-rule="nonzero"
       fill="#000000"
       fill-opacity="1"
       d="m 158.73193,141.12281 h -0.21704 v -0.19224 h -0.004 c -0.0672,0.13746 -0.22944,0.22117 -0.39791,0.22117 -0.31419,0 -0.45475,-0.19533 -0.45475,-0.5209 v -0.72243 h 0.22324 v 0.62942 c 0,0.28318 0.062,0.42065 0.25735,0.43305 0.25528,0 0.36897,-0.20464 0.36897,-0.50023 v -0.56224 h 0.22427 v 1.2144"
       id="path4956"
       style="stroke-width:0.264583" />
    <path
       fill-rule="nonzero"
       fill="#000000"
       fill-opacity="1"
       d="m 159.37995,139.38544 h -0.25321 v 0.25218 h 0.25321 z m -0.23874,1.73737 h 0.22428 v -1.2144 h -0.22428 z m 0,0"
       id="path4957"
       style="stroke-width:0.264583" />
    <path
       fill-rule="nonzero"
       fill="#000000"
       fill-opacity="1"
       d="m 160.41968,140.08928 h -0.32142 v 0.66456 c 0,0.14056 0.0858,0.21704 0.1881,0.21704 0.0693,0 0.11989,-0.0217 0.15296,-0.0424 v 0.19017 c -0.0506,0.0145 -0.11885,0.0331 -0.19017,0.0331 -0.23151,0 -0.37413,-0.10955 -0.37413,-0.35243 v -0.71003 h -0.27389 v -0.18087 h 0.27389 v -0.28009 l 0.22324,-0.0713 v 0.3514 h 0.32142 v 0.18087"
       id="path4958"
       style="stroke-width:0.264583" />
    <path
       fill-rule="nonzero"
       fill="#000000"
       fill-opacity="1"
       d="m 162.20737,140.21109 c -0.0858,-0.0362 -0.17157,-0.0527 -0.24288,-0.0527 -0.25012,0 -0.39067,0.22324 -0.39067,0.45475 0,0.21704 0.11678,0.45475 0.40514,0.45475 0.0765,0 0.17156,-0.0238 0.24081,-0.0692 l 0.0165,0.2005 c -0.093,0.0424 -0.2005,0.0496 -0.28112,0.0496 -0.3669,0 -0.61908,-0.28835 -0.61908,-0.63562 0,-0.36897 0.24701,-0.63562 0.61908,-0.63562 0.0899,0 0.20671,0.0217 0.27079,0.0475 l -0.0186,0.18604"
       id="path4959"
       style="stroke-width:0.264583" />
    <path
       fill-rule="nonzero"
       fill="#000000"
       fill-opacity="1"
       d="m 162.5505,140.0912 c 0.11162,-0.0662 0.24495,-0.11369 0.39998,-0.11369 0.34726,0 0.48782,0.17156 0.48782,0.50229 v 0.5023 c 0,0.13849 0.005,0.20257 0.009,0.23771 h -0.20877 v -0.15709 h -0.005 c -0.0527,0.0744 -0.17157,0.18603 -0.37621,0.18603 -0.26148,0 -0.44545,-0.11472 -0.44545,-0.37827 0,-0.30489 0.33383,-0.39998 0.56431,-0.39998 0.0879,0 0.14986,0 0.23771,0.005 0,-0.2098 -0.0754,-0.31729 -0.29972,-0.31729 -0.12609,0 -0.26148,0.0475 -0.35243,0.12402 z m 0.66353,0.55087 c -0.0465,0 -0.0951,-0.005 -0.14263,-0.005 -0.12092,0 -0.42065,0.0196 -0.42065,0.23358 0,0.12816 0.12299,0.1974 0.22531,0.1974 0.22221,0 0.33797,-0.13849 0.33797,-0.31936 v -0.10645"
       id="path4960"
       style="stroke-width:0.264583" />
    <path
       fill-rule="nonzero"
       fill="#000000"
       fill-opacity="1"
       d="m 163.81657,139.43387 h 0.22428 v 0.73898 h 0.005 c 0.0682,-0.11162 0.19017,-0.19534 0.40204,-0.19534 0.35243,0 0.524,0.28835 0.524,0.61392 0,0.33383 -0.15503,0.65732 -0.52193,0.65732 -0.21601,0 -0.3545,-0.10955 -0.41445,-0.19947 h -0.004 v 0.17053 h -0.21497 z m 0.58395,0.72451 c -0.24288,0 -0.35967,0.23047 -0.35967,0.45682 0,0.20257 0.10438,0.45268 0.3576,0.45268 0.23978,0 0.34003,-0.26871 0.33589,-0.45992 0.004,-0.21911 -0.0909,-0.44958 -0.33382,-0.44958"
       id="path4961"
       style="stroke-width:0.264583" />
    <path
       fill-rule="nonzero"
       fill="#000000"
       fill-opacity="1"
       d="m 165.30072,139.43387 h 0.22324 v 1.78594 h -0.22324 z m 0,0"
       id="path4962"
       style="stroke-width:0.264583" />
    <path
       fill-rule="nonzero"
       fill="#000000"
       fill-opacity="1"
       d="m 166.86445,141.1702 c -0.0848,0.031 -0.18294,0.0786 -0.38241,0.0786 -0.43201,0 -0.62942,-0.26148 -0.62942,-0.65732 0,-0.35967 0.22635,-0.61392 0.56948,-0.61392 0.40514,0 0.53537,0.29456 0.53537,0.68523 h -0.8661 c 0,0.24081 0.1881,0.40514 0.39997,0.40514 0.1478,0 0.31833,-0.0765 0.37311,-0.12195 z m -0.1447,-0.67386 c 0,-0.18603 -0.10955,-0.33796 -0.30282,-0.33796 -0.21911,0 -0.30902,0.18086 -0.32556,0.33796 h 0.62838"
       id="path4963"
       style="stroke-width:0.264583" />
    <path
       fill-rule="nonzero"
       fill="#000000"
       fill-opacity="1"
       d="m 146.12112,127.31862 h 0.25012 l 0.70176,1.66294 h -0.25941 l -0.16847,-0.41961 h -0.81442 l -0.1695,0.41961 h -0.25011 z m 0.11679,0.22427 -0.33176,0.82373 h 0.66249 z m 0,0"
       id="path4964"
       style="stroke-width:0.264583" />
    <path
       fill-rule="nonzero"
       fill="#000000"
       fill-opacity="1"
       d="m 147.29211,127.76717 h 0.20981 v 0.1881 h 0.005 c 0.0589,-0.12609 0.1881,-0.21704 0.31626,-0.21704 0.0672,0 0.10025,0.007 0.14779,0.0165 v 0.2005 c -0.0403,-0.0165 -0.0858,-0.0217 -0.12402,-0.0217 -0.19947,0 -0.33073,0.19017 -0.33073,0.49506 v 0.55294 h -0.22428 v -1.21439"
       id="path4965"
       style="stroke-width:0.264583" />
    <path
       fill-rule="nonzero"
       fill="#000000"
       fill-opacity="1"
       d="m 148.21608,127.76717 h 0.20981 v 0.1757 h 0.005 c 0.0858,-0.14056 0.20671,-0.20464 0.38551,-0.20464 0.14056,0 0.28112,0.0713 0.3452,0.23564 0.0837,-0.17363 0.26665,-0.23564 0.3762,-0.23564 0.30902,0 0.42168,0.2005 0.42168,0.46405 v 0.77928 h -0.22432 v -0.7245 c 0,-0.14986 -0.0351,-0.33796 -0.216,-0.33796 -0.22945,0 -0.31936,0.22427 -0.31936,0.44958 v 0.61288 h -0.22428 v -0.7245 c 0,-0.14986 -0.0351,-0.33796 -0.21601,-0.33796 -0.22944,0 -0.31936,0.22427 -0.31936,0.44958 v 0.61288 h -0.22427 v -1.21439"
       id="path4966"
       style="stroke-width:0.264583" />
    <path
       fill-rule="nonzero"
       fill="#000000"
       fill-opacity="1"
       d="m 146.53735,143.81791 c -0.10438,-0.062 -0.22117,-0.093 -0.3421,-0.093 -0.38343,0 -0.63872,0.27595 -0.63872,0.65009 0,0.39067 0.28112,0.65009 0.62632,0.65009 0.11989,0 0.27905,-0.031 0.36174,-0.0817 l 0.0145,0.23151 c -0.12609,0.0527 -0.28112,0.0599 -0.37827,0.0599 -0.52607,0 -0.87643,-0.33796 -0.87643,-0.86713 0,-0.51159 0.37103,-0.85266 0.87849,-0.85266 0.12919,0 0.25529,0.0196 0.37414,0.0724 l -0.0196,0.23048"
       id="path4967"
       style="stroke-width:0.264583" />
    <path
       fill-rule="nonzero"
       fill="#000000"
       fill-opacity="1"
       d="m 146.82364,143.42 h 0.22427 v 0.74517 h 0.004 c 0.0806,-0.12815 0.22118,-0.20257 0.39067,-0.20257 0.3142,0 0.45476,0.19534 0.45476,0.52193 v 0.72141 h -0.22428 v -0.62839 c 0,-0.28422 -0.061,-0.42168 -0.25631,-0.43408 -0.25528,0 -0.36897,0.20464 -0.36897,0.50126 v 0.56121 H 146.8235 V 143.42"
       id="path4968"
       style="stroke-width:0.264583" />
    <path
       fill-rule="nonzero"
       fill="#000000"
       fill-opacity="1"
       d="m 148.33569,144.07732 c 0.11162,-0.0661 0.24495,-0.11472 0.39998,-0.11472 0.34726,0 0.48782,0.1726 0.48782,0.50333 v 0.50229 c 0,0.1385 0.005,0.20154 0.0104,0.23772 h -0.20981 v -0.1571 h -0.005 c -0.0517,0.0744 -0.17156,0.18603 -0.3762,0.18603 -0.26148,0 -0.44545,-0.11472 -0.44545,-0.3793 0,-0.30489 0.33383,-0.39998 0.56431,-0.39998 0.0889,0 0.15089,0 0.23874,0.005 0,-0.2098 -0.0765,-0.31729 -0.30076,-0.31729 -0.12609,0 -0.26148,0.0486 -0.3514,0.12402 z m 0.66456,0.54984 c -0.0475,0 -0.0951,-0.004 -0.14263,-0.004 -0.12195,0 -0.42168,0.0186 -0.42168,0.23255 0,0.12919 0.12403,0.19844 0.22531,0.19844 0.22221,0 0.339,-0.1385 0.339,-0.31936 v -0.10749"
       id="path4969"
       style="stroke-width:0.264583" />
    <path
       fill-rule="nonzero"
       fill="#000000"
       fill-opacity="1"
       d="m 149.51185,144.96822 c 0.0879,0.0569 0.21497,0.0858 0.27905,0.0858 0.10232,0 0.22841,-0.0434 0.22841,-0.17364 0,-0.2222 -0.52607,-0.20257 -0.52607,-0.54363 0,-0.25218 0.18811,-0.37414 0.42789,-0.37414 0.10542,0 0.1912,0.0217 0.27905,0.0486 l -0.0186,0.19533 c -0.0506,-0.032 -0.18397,-0.063 -0.23668,-0.063 -0.11369,0 -0.21394,0.0486 -0.21394,0.14883 0,0.24701 0.52607,0.1757 0.52607,0.56327 0,0.26045 -0.20671,0.3793 -0.42375,0.3793 -0.11369,0 -0.23048,-0.0124 -0.33383,-0.0672 l 0.0124,-0.19948"
       id="path4970"
       style="stroke-width:0.264583" />
    <path
       fill-rule="nonzero"
       fill="#000000"
       fill-opacity="1"
       d="m 150.43789,144.96822 c 0.0889,0.0569 0.21497,0.0858 0.27905,0.0858 0.10232,0 0.22841,-0.0434 0.22841,-0.17364 0,-0.2222 -0.52606,-0.20257 -0.52606,-0.54363 0,-0.25218 0.1881,-0.37414 0.42891,-0.37414 0.10439,0 0.19017,0.0217 0.27802,0.0486 l -0.0186,0.19533 c -0.0506,-0.032 -0.18397,-0.063 -0.23564,-0.063 -0.11472,0 -0.21498,0.0486 -0.21498,0.14883 0,0.24701 0.5271,0.1757 0.5271,0.56327 0,0.26045 -0.20774,0.3793 -0.42478,0.3793 -0.11369,0 -0.23048,-0.0124 -0.33279,-0.0672 l 0.0114,-0.19948"
       id="path4971"
       style="stroke-width:0.264583" />
    <path
       fill-rule="nonzero"
       fill="#000000"
       fill-opacity="1"
       d="m 151.72153,143.71972 h -0.25218 v -0.25218 h 0.25218 z m -0.23771,0.27182 h 0.22324 v 1.2144 h -0.22324 z m 0,0"
       id="path4972"
       style="stroke-width:0.264583" />
    <path
       fill-rule="nonzero"
       fill="#000000"
       fill-opacity="1"
       d="m 152.02642,144.96822 c 0.0879,0.0569 0.21498,0.0858 0.27906,0.0858 0.10232,0 0.22841,-0.0434 0.22841,-0.17364 0,-0.2222 -0.52607,-0.20257 -0.52607,-0.54363 0,-0.25218 0.1881,-0.37414 0.42788,-0.37414 0.10542,0 0.1912,0.0217 0.27905,0.0486 l -0.0186,0.19533 c -0.0506,-0.032 -0.18397,-0.063 -0.23564,-0.063 -0.11472,0 -0.21498,0.0486 -0.21498,0.14883 0,0.24701 0.52607,0.1757 0.52607,0.56327 0,0.26045 -0.20671,0.3793 -0.42375,0.3793 -0.11472,0 -0.23047,-0.0124 -0.33383,-0.0672 l 0.0124,-0.19948"
       id="path4973"
       style="stroke-width:0.264583" />
    <path
       fill-rule="nonzero"
       fill="#000000"
       fill-opacity="1"
       d="m 145.12281,119.35553 h 0.43615 c 0.34003,0 0.62425,0.11886 0.62425,0.49713 0,0.36897 -0.28836,0.50023 -0.58808,0.50023 h -0.23358 v 0.66456 h -0.23874 z m 0.23874,0.78755 h 0.23565 c 0.14779,0 0.3328,-0.0734 0.3328,-0.29249 0,-0.20981 -0.21911,-0.28525 -0.36588,-0.28525 h -0.20257 v 0.57774"
       id="path4974"
       style="stroke-width:0.264583" />
    <path
       fill-rule="nonzero"
       fill="#000000"
       fill-opacity="1"
       d="m 146.43953,119.80305 h 0.2098 v 0.1881 h 0.005 c 0.0589,-0.12609 0.1881,-0.21704 0.31626,-0.21704 0.0672,0 0.10025,0.007 0.14779,0.0165 v 0.2005 c -0.0403,-0.0165 -0.0858,-0.0217 -0.12402,-0.0217 -0.19947,0 -0.33073,0.19121 -0.33073,0.49507 v 0.55293 h -0.22427 v -1.21439"
       id="path4975"
       style="stroke-width:0.264583" />
    <path
       fill-rule="nonzero"
       fill="#000000"
       fill-opacity="1"
       d="m 147.90403,119.77411 c 0.37001,0 0.61702,0.26665 0.61702,0.63562 0,0.3483 -0.25218,0.63665 -0.61702,0.63665 -0.36586,0 -0.61908,-0.28835 -0.61908,-0.63665 0,-0.36897 0.24805,-0.63562 0.61908,-0.63562 m 0,1.09141 c 0.26252,0 0.37931,-0.23875 0.37931,-0.45579 0,-0.23048 -0.14056,-0.45475 -0.37931,-0.45475 -0.23977,0 -0.38033,0.22427 -0.38033,0.45475 0,0.21704 0.11575,0.45579 0.38033,0.45579"
       id="path4976"
       style="stroke-width:0.264583" />
    <path
       fill-rule="nonzero"
       fill="#000000"
       fill-opacity="1"
       d="m 149.46673,119.98392 h -0.32143 v 0.66456 c 0,0.14056 0.0858,0.21704 0.18811,0.21704 0.0682,0 0.11885,-0.0217 0.15192,-0.0434 v 0.19017 c -0.0496,0.0145 -0.11885,0.0341 -0.19016,0.0341 -0.23152,0 -0.37414,-0.10955 -0.37414,-0.35243 v -0.71003 h -0.27389 v -0.18087 h 0.27389 v -0.28112 l 0.22427,-0.0713 v 0.35244 h 0.32143 v 0.18087"
       id="path4977"
       style="stroke-width:0.264583" />
    <path
       fill-rule="nonzero"
       fill="#000000"
       fill-opacity="1"
       d="m 150.67906,120.96784 c -0.0868,0.031 -0.18397,0.0785 -0.38344,0.0785 -0.43098,0 -0.62942,-0.26251 -0.62942,-0.65732 0,-0.35967 0.22634,-0.61495 0.56947,-0.61495 0.40412,0 0.53537,0.29559 0.53537,0.68626 h -0.86609 c 0,0.24082 0.1881,0.40515 0.39997,0.40515 0.14676,0 0.31936,-0.0765 0.37414,-0.12196 z m -0.14573,-0.67387 c 0,-0.18603 -0.10955,-0.33899 -0.30282,-0.33899 -0.21911,0 -0.30903,0.1819 -0.32556,0.33899 h 0.62838"
       id="path4978"
       style="stroke-width:0.264583" />
    <path
       fill-rule="nonzero"
       fill="#000000"
       fill-opacity="1"
       d="m 151.84281,120.00769 c -0.0858,-0.0351 -0.17156,-0.0527 -0.24288,-0.0527 -0.25011,0 -0.39067,0.22427 -0.39067,0.45475 0,0.21704 0.11679,0.45579 0.40514,0.45579 0.0765,0 0.17157,-0.0238 0.24082,-0.0693 l 0.0165,0.19947 c -0.093,0.0434 -0.2005,0.0506 -0.28112,0.0506 -0.3669,0 -0.61908,-0.28835 -0.61908,-0.63665 0,-0.36897 0.24804,-0.63562 0.61908,-0.63562 0.0909,0 0.20671,0.0217 0.27079,0.0475 l -0.0186,0.18604"
       id="path4979"
       style="stroke-width:0.264583" />
    <path
       fill-rule="nonzero"
       fill="#000000"
       fill-opacity="1"
       d="m 152.77402,119.98392 h -0.32143 v 0.66456 c 0,0.14056 0.0858,0.21704 0.18811,0.21704 0.0692,0 0.11885,-0.0217 0.15296,-0.0434 v 0.19017 c -0.0506,0.0145 -0.11989,0.0341 -0.1912,0.0341 -0.23151,0 -0.37414,-0.10955 -0.37414,-0.35243 v -0.71003 h -0.27389 v -0.18087 h 0.27389 v -0.28112 l 0.22427,-0.0713 v 0.35244 h 0.32143 v 0.18087"
       id="path4980"
       style="stroke-width:0.264583" />
    <path
       fill-rule="nonzero"
       fill="#000000"
       fill-opacity="1"
       d="m 153.32179,119.53123 h -0.25218 v -0.25218 h 0.25218 z m -0.23771,0.27182 h 0.22324 v 1.2144 h -0.22324 z m 0,0"
       id="path4981"
       style="stroke-width:0.264583" />
    <path
       fill-rule="nonzero"
       fill="#000000"
       fill-opacity="1"
       d="m 154.25507,121.01745 h -0.26665 l -0.43615,-1.2144 h 0.24598 l 0.32866,0.99012 h 0.004 l 0.3359,-0.99012 h 0.22427 z m 0,0"
       id="path4982"
       style="stroke-width:0.264583" />
    <path
       fill-rule="nonzero"
       fill="#000000"
       fill-opacity="1"
       d="m 155.83844,120.96784 c -0.0858,0.031 -0.18294,0.0785 -0.38344,0.0785 -0.43099,0 -0.62839,-0.26251 -0.62839,-0.65732 0,-0.35967 0.22634,-0.61495 0.56947,-0.61495 0.40411,0 0.53537,0.29559 0.53537,0.68626 h -0.86713 c 0,0.24082 0.18914,0.40515 0.40101,0.40515 0.14676,0 0.31833,-0.0765 0.37311,-0.12196 z m -0.1447,-0.67387 c 0,-0.18603 -0.10955,-0.33899 -0.30282,-0.33899 -0.21911,0 -0.31006,0.1819 -0.3266,0.33899 h 0.62942"
       id="path4983"
       style="stroke-width:0.264583" />
    <path
       fill-rule="nonzero"
       fill="#000000"
       fill-opacity="1"
       d="m 157.66468,120.00769 c -0.0847,-0.0351 -0.17053,-0.0527 -0.24288,-0.0527 -0.24908,0 -0.39067,0.22427 -0.39067,0.45475 0,0.21704 0.11678,0.45579 0.40514,0.45579 0.0765,0 0.17157,-0.0238 0.24081,-0.0693 l 0.0165,0.19947 c -0.093,0.0434 -0.19947,0.0506 -0.28112,0.0506 -0.3669,0 -0.61909,-0.28835 -0.61909,-0.63665 0,-0.36897 0.24805,-0.63562 0.61909,-0.63562 0.0909,0 0.2067,0.0217 0.27182,0.0475 l -0.0196,0.18604"
       id="path4984"
       style="stroke-width:0.264583" />
    <path
       fill-rule="nonzero"
       fill="#000000"
       fill-opacity="1"
       d="m 158.4884,119.77411 c 0.37001,0 0.61702,0.26665 0.61702,0.63562 0,0.3483 -0.25218,0.63665 -0.61702,0.63665 -0.36587,0 -0.61908,-0.28835 -0.61908,-0.63665 0,-0.36897 0.24805,-0.63562 0.61908,-0.63562 m 0,1.09141 c 0.26252,0 0.37931,-0.23875 0.37931,-0.45579 0,-0.23048 -0.14056,-0.45475 -0.37931,-0.45475 -0.23978,0 -0.38034,0.22427 -0.38034,0.45475 0,0.21704 0.11679,0.45579 0.38034,0.45579"
       id="path4985"
       style="stroke-width:0.264583" />
    <path
       fill-rule="nonzero"
       fill="#000000"
       fill-opacity="1"
       d="m 159.94361,121.01745 h -0.26665 l -0.43512,-1.2144 h 0.24495 l 0.32866,0.99012 h 0.005 l 0.33486,-0.99012 h 0.22428 z m 0,0"
       id="path4986"
       style="stroke-width:0.264583" />
    <path
       fill-rule="nonzero"
       fill="#000000"
       fill-opacity="1"
       d="m 161.52801,120.96784 c -0.0868,0.031 -0.18397,0.0785 -0.38447,0.0785 -0.43098,0 -0.62839,-0.26251 -0.62839,-0.65732 0,-0.35967 0.22635,-0.61495 0.56948,-0.61495 0.4041,0 0.53536,0.29559 0.53536,0.68626 h -0.86609 c 0,0.24082 0.1881,0.40515 0.39997,0.40515 0.14676,0 0.31936,-0.0765 0.37414,-0.12196 z m -0.14573,-0.67387 c 0,-0.18603 -0.10955,-0.33899 -0.30282,-0.33899 -0.21911,0 -0.30903,0.1819 -0.32556,0.33899 h 0.62838"
       id="path4987"
       style="stroke-width:0.264583" />
    <path
       fill-rule="nonzero"
       fill="#000000"
       fill-opacity="1"
       d="m 161.92075,119.80305 h 0.20877 v 0.1881 h 0.005 c 0.0589,-0.12609 0.18811,-0.21704 0.31626,-0.21704 0.0672,0 0.10025,0.007 0.1478,0.0165 v 0.2005 c -0.0403,-0.0165 -0.0858,-0.0217 -0.12403,-0.0217 -0.19947,0 -0.33072,0.19121 -0.33072,0.49507 v 0.55293 h -0.22325 v -1.21439"
       id="path4988"
       style="stroke-width:0.264583" />
    <path
       fill="none"
       stroke-width="0.198437"
       stroke-linecap="butt"
       stroke-linejoin="miter"
       stroke="#000000"
       stroke-opacity="1"
       stroke-miterlimit="4"
       d="m 102.15191,139.26799 h 21.58938 m -11.15385,4.49791 h 9.30176 m -11.68301,10.84792 h 10.09551 m -8.71781,1.59783 4.10414,1.72496 m -19.283576,-18.2087 h -7.119979 m 7.464144,-7.14375 h -4.289144"
       id="path4989" />
    <text
       xml:space="preserve"
       style="font-size:3.175px;fill:#000000;stroke-width:0.264583"
       x="114.09641"
       y="121.06875"
       id="text1"><tspan
         sodipodi:role="line"
         id="tspan1"
         style="stroke-width:0.264583"
         x="114.09641"
         y="121.06875">1</tspan></text>
    <text
       xml:space="preserve"
       style="font-size:3.175px;fill:#000000;stroke-width:0.264583"
       x="88.987312"
       y="133.72812"
       id="text2"><tspan
         sodipodi:role="line"
         id="tspan2"
         style="stroke-width:0.264583"
         x="88.987312"
         y="133.72812">2</tspan></text>
    <text
       xml:space="preserve"
       style="font-size:3.175px;fill:#000000;stroke-width:0.264583"
       x="86.371803"
       y="140.48607"
       id="text3"><tspan
         sodipodi:role="line"
         id="tspan3"
         style="stroke-width:0.264583"
         x="86.371803"
         y="140.48607">3</tspan></text>
    <text
       xml:space="preserve"
       style="font-size:3.175px;fill:#000000;stroke-width:0.264583"
       x="125.59972"
       y="139.44167"
       id="text4"><tspan
         sodipodi:role="line"
         id="tspan4"
         style="stroke-width:0.264583"
         x="125.59972"
         y="139.44167">4</tspan></text>
    <text
       xml:space="preserve"
       style="font-size:3.175px;fill:#000000;stroke-width:0.264583"
       x="123.76108"
       y="144.51186"
       id="text5"><tspan
         sodipodi:role="line"
         id="tspan5"
         style="stroke-width:0.264583"
         x="123.76108"
         y="144.51186">5</tspan></text>
    <text
       xml:space="preserve"
       style="font-size:3.175px;fill:#000000;stroke-width:0.264583"
       x="89.769318"
       y="153.80428"
       id="text6"><tspan
         sodipodi:role="line"
         id="tspan6"
         style="stroke-width:0.264583"
         x="89.769318"
         y="153.80428">6</tspan></text>
    <text
       xml:space="preserve"
       style="font-size:3.175px;fill:#000000;stroke-width:0.264583"
       x="122.35305"
       y="155.11035"
       id="text7"><tspan
         sodipodi:role="line"
         id="tspan7"
         style="stroke-width:0.264583"
         x="122.35305"
         y="155.11035">7</tspan></text>
    <text
       xml:space="preserve"
       style="font-size:3.175px;fill:#000000;stroke-width:0.264583"
       x="117.64476"
       y="159.5058"
       id="text8"><tspan
         sodipodi:role="line"
         id="tspan8"
         style="stroke-width:0.264583"
         x="117.64476"
         y="159.5058">8</tspan></text>
    <text
       xml:space="preserve"
       style="font-size:3.175px;fill:#000000;stroke-width:0.264583"
       x="142.25053"
       y="121.32265"
       id="text9"><tspan
         sodipodi:role="line"
         id="tspan9"
         style="stroke-width:0.264583"
         x="142.25053"
         y="121.32265">1</tspan><tspan
         sodipodi:role="line"
         style="stroke-width:0.264583"
         x="142.25053"
         y="125.2914"
         id="tspan15">2</tspan><tspan
         sodipodi:role="line"
         style="stroke-width:0.264583"
         x="142.25053"
         y="129.26015"
         id="tspan16">3</tspan><tspan
         sodipodi:role="line"
         style="stroke-width:0.264583"
         x="142.25053"
         y="133.2289"
         id="tspan17">4</tspan><tspan
         sodipodi:role="line"
         style="stroke-width:0.264583"
         x="142.25053"
         y="137.19765"
         id="tspan18">5</tspan><tspan
         sodipodi:role="line"
         style="stroke-width:0.264583"
         x="142.25053"
         y="141.1664"
         id="tspan19">6</tspan><tspan
         sodipodi:role="line"
         style="stroke-width:0.264583"
         x="142.25053"
         y="145.13515"
         id="tspan20">7</tspan><tspan
         sodipodi:role="line"
         style="stroke-width:0.264583"
         x="142.25053"
         y="149.1039"
         id="tspan21">8</tspan></text>
  </g>
</svg>
